<svg width="328" height="195" viewBox="0 0 328 195" fill="none" xmlns="http://www.w3.org/2000/svg">
<path fill-rule="evenodd" clip-rule="evenodd" d="M161 191.5C161 191.5 124.959 194 80.4998 194C36.0412 194 0 191.5 0 191.5C0 191.5 36.0412 189 80.4998 189C124.959 189 161 191.5 161 191.5Z" fill="#D3D3D3"/>
<path fill-rule="evenodd" clip-rule="evenodd" d="M98.0664 64.7809L109.307 50.8578L120.648 47.9524L120.727 49.8197L114.41 53.1418L120.934 54.8519L129.521 50.3256L130.755 51.8579L121.711 59.3637L110.764 57.6337L104.925 67L98.0664 64.7809Z" fill="#FFC1A0"/>
<path fill-rule="evenodd" clip-rule="evenodd" d="M101.867 57.1749L104.856 54.0476L111.75 62.2054L109.182 64.7143L101.867 57.1749Z" fill="white"/>
<path fill-rule="evenodd" clip-rule="evenodd" d="M110.23 65.3784L100.938 56.2643C97.8318 57.7079 86.3256 69.7761 81.3895 75.4418C81.3895 75.4418 78.7404 52.4379 73.598 49.4762L66.8979 57.7091V75.2373L71.1559 89.1253C71.1559 89.1253 76.2534 92.6393 78.4074 92.0832C80.562 91.5271 89.9079 83.4431 89.9079 83.4431H89.9073C99.4837 75.6091 110.23 65.3784 110.23 65.3784Z" fill="#3EB16E"/>
<path fill-rule="evenodd" clip-rule="evenodd" d="M99.6306 183.595C99.1893 183.375 98.7772 183.17 98.3657 182.95C98.1152 182.819 97.8653 182.702 97.6303 182.57C97.189 182.336 96.7775 182.116 96.3946 181.897C96.0856 181.736 95.8065 181.575 95.5411 181.414C95.0855 181.15 94.6883 180.916 94.3209 180.696C93.3792 180.126 92.7912 179.701 92.6289 179.555C92.6289 179.54 92.6146 179.525 92.5997 179.511C92.5264 179.423 92.4822 179.292 92.453 179.101C92.3821 178.731 92.4667 178.165 92.637 177.476H86.02L82.8623 191.733L114.001 191.952L114.031 188.893C108.735 187.693 103.558 185.541 99.6306 183.595Z" fill="#D0D0DD"/>
<path fill-rule="evenodd" clip-rule="evenodd" d="M100.032 187.381L102.627 183.64L101.422 182.81L98.8264 186.55L100.032 187.381Z" fill="#D0D0DD"/>
<path fill-rule="evenodd" clip-rule="evenodd" d="M97.7513 185.857L100.347 182.116L99.1415 181.286L96.5459 185.027L97.7513 185.857Z" fill="#D0D0DD"/>
<path fill-rule="evenodd" clip-rule="evenodd" d="M96.2308 184.333L98.8264 180.592L97.6204 179.762L95.0254 183.503L96.2308 184.333Z" fill="#D0D0DD"/>
<path fill-rule="evenodd" clip-rule="evenodd" d="M108.163 114.986C104.848 108.328 86.2244 107.371 86.2244 107.371L53.388 102.81C53.388 102.81 48.9138 121.228 54.5075 125.181C60.1005 129.135 89.3107 127.457 89.3107 127.457L83.3031 178.238H98.6329C98.6329 178.238 111.477 121.644 108.163 114.986Z" fill="#513E35"/>
<path fill-rule="evenodd" clip-rule="evenodd" d="M38.0103 191.952H51.6939V134.81H38.0103V191.952Z" fill="white"/>
<path fill-rule="evenodd" clip-rule="evenodd" d="M38.0103 191.952H51.6939V184.333H38.0103V191.952Z" fill="#D0D0DD"/>
<path fill-rule="evenodd" clip-rule="evenodd" d="M121 191.952H134.684V134.81H121V191.952Z" fill="white"/>
<path fill-rule="evenodd" clip-rule="evenodd" d="M121 191.952H134.684V184.333H121V191.952Z" fill="#D0D0DD"/>
<path fill-rule="evenodd" clip-rule="evenodd" d="M21.2812 137.095H134.281V128.676H21.2812V137.095Z" fill="#D0D0DD"/>
<path fill-rule="evenodd" clip-rule="evenodd" d="M21.2856 131.762H134.286V123.381H21.2856V131.762Z" fill="white"/>
<path fill-rule="evenodd" clip-rule="evenodd" d="M92.7888 183.595C92.3475 183.375 91.9354 183.17 91.5239 182.95C91.2734 182.819 91.0235 182.702 90.7885 182.57C90.3472 182.336 89.9357 182.116 89.5528 181.897C89.2438 181.736 88.9647 181.575 88.6993 181.414C88.2437 181.15 87.8465 180.916 87.4791 180.696C86.5374 180.126 85.9494 179.701 85.7871 179.555C85.7871 179.54 85.7728 179.525 85.7579 179.511C85.6846 179.423 85.6404 179.292 85.6112 179.101C85.5403 178.731 85.6243 178.165 85.7952 177.476H79.1782L76.0205 191.733L107.16 191.952L107.189 188.893C101.893 187.693 96.7161 185.541 92.7888 183.595Z" fill="white"/>
<path fill-rule="evenodd" clip-rule="evenodd" d="M93.9502 187.381L96.5459 183.64L95.3405 182.81L92.7449 186.55L93.9502 187.381Z" fill="#D0D0DD"/>
<path fill-rule="evenodd" clip-rule="evenodd" d="M91.6697 185.857L94.2654 182.116L93.06 181.286L90.4644 185.027L91.6697 185.857Z" fill="#D0D0DD"/>
<path fill-rule="evenodd" clip-rule="evenodd" d="M89.3892 184.333L91.9846 180.592L90.779 179.762L88.1836 183.503L89.3892 184.333Z" fill="#D0D0DD"/>
<path fill-rule="evenodd" clip-rule="evenodd" d="M101.318 115.413C97.9839 108.719 79.2527 107.757 79.2527 107.757L47.3525 97.4762C47.3525 97.4762 41.7265 121.688 47.3525 125.662C52.9779 129.636 82.3568 127.95 82.3568 127.95L76.3145 179H91.7328C91.7328 179 104.651 122.106 101.318 115.413Z" fill="#57443B"/>
<path fill-rule="evenodd" clip-rule="evenodd" d="M70.6991 43.381L60.8164 38.8336L61.2866 33.4507L61.7071 28.6482L61.7211 28.4704L64.0133 27.381L68.7971 31.15L69.5945 36.2623L69.8677 38.0315L70.6991 43.381Z" fill="#FFDFC4"/>
<path fill-rule="evenodd" clip-rule="evenodd" d="M69.9389 38.0476L60.8164 33.5848L61.2634 28.9048C61.2634 28.9048 62.3295 29.6443 63.6139 29.4032C63.6139 29.4032 66.6395 33.7982 69.6477 36.3238L69.9389 38.0476Z" fill="#FFC1A0"/>
<path fill-rule="evenodd" clip-rule="evenodd" d="M76.6502 106.946C77.9461 94.8989 78.1655 74.5712 78.2974 65.4579C78.4893 52.1485 71.1979 45.9934 71.1979 45.9934L57.7958 40.3333C53.2349 44.9814 50.2506 50.9763 49.2735 57.4529L42.5715 110.429L76.6502 106.946Z" fill="#00C685"/>
<path fill-rule="evenodd" clip-rule="evenodd" d="M76.9838 14.1004C76.9838 14.1004 80.8156 23.7365 82.6299 26.2783C83.8895 28.0433 79.6182 28.0508 79.6182 28.0508C79.6182 28.0508 80.3423 44.8916 71.9876 37.8506C64.6194 31.6409 63.8533 29.0333 63.8533 29.0333C63.8533 29.0333 60.6009 29.0765 60.167 26.8689C59.7331 24.6607 60.5094 21.6687 63.6329 23.2832C63.6329 23.2832 65.6981 21.3038 66.0271 19.1301C66.3562 16.9557 65.7565 12.5141 69.2167 12.9323C72.6768 13.3512 76.9838 14.1004 76.9838 14.1004Z" fill="#FFDFC4"/>
<path fill-rule="evenodd" clip-rule="evenodd" d="M50.9721 21.6913C49.4222 17.792 50.7237 12.9629 54.0303 10.3462C52.5208 9.98334 50.9241 9.98021 49.4133 10.3362C50.8059 8.2389 53.5885 7.14957 56.0544 7.73709C56.3369 5.68169 57.2289 3.712 58.5911 2.13588C58.2813 3.11947 58.3623 4.21819 58.8117 5.14735C60.3484 3.2834 62.4217 1.85745 64.7233 1.08409C66.442 0.505949 67.8491 0.547245 69.9048 1.62782L66.9806 2.72716C70.7044 1.70228 75.2923 2.97994 77.8771 5.82497C80.4612 8.66938 80.5648 13.6393 77.6135 16.1095C76.7159 16.861 75.6128 17.3515 74.4674 17.6124C71.858 18.2068 68.9389 17.5505 66.9926 15.7303C67.4073 18.8219 66.3788 22.0749 64.2561 24.3799C64.418 23.3131 63.2169 22.3696 62.1442 22.5604C61.0715 22.7506 60.4413 23.7567 60.3161 24.8286C60.191 25.9004 61.1309 27.1955 61.6948 28.1191C57.4729 28.4338 52.5221 25.5906 50.9721 21.6913Z" fill="#242143"/>
<path fill-rule="evenodd" clip-rule="evenodd" d="M59.0751 37.2857L73.7219 43.7238L73.7397 49.4762L57.7754 39.9826L59.0751 37.2857Z" fill="white"/>
<path fill-rule="evenodd" clip-rule="evenodd" d="M72.9723 25.2781C72.8715 26.5363 71.772 27.4745 70.5166 27.3735C69.2612 27.2725 68.3251 26.1712 68.4259 24.9124C68.5266 23.6542 69.6255 22.716 70.8815 22.817C72.1362 22.9179 73.073 24.0199 72.9723 25.2781Z" fill="#FFC1A0"/>
<path fill-rule="evenodd" clip-rule="evenodd" d="M63.097 24.5514C63.097 24.5514 62.8543 24.5743 62.5082 24.6264C62.3372 24.6556 62.1462 24.7008 61.9945 24.7844C61.8442 24.8646 61.7249 24.9894 61.6104 25.1578C61.3843 25.5053 61.2436 25.8724 61.2243 26.1484C61.2002 26.4272 61.2912 26.6191 61.2912 26.6191C61.2912 26.6191 61.2409 26.5927 61.165 26.5269C61.0885 26.4616 60.9892 26.3516 60.9168 26.1919C60.7679 25.8747 60.7596 25.3708 61.065 24.9052C61.2174 24.6705 61.4836 24.4615 61.7794 24.3847C62.071 24.3057 62.3255 24.3326 62.5165 24.3676C62.8978 24.4472 63.097 24.5514 63.097 24.5514Z" fill="#FFC1A0"/>
<path fill-rule="evenodd" clip-rule="evenodd" d="M55.1539 12.9048C55.1539 12.9048 55.0667 13.0924 54.9118 13.4257C54.7556 13.759 54.544 14.2453 54.3222 14.8471C53.8894 16.0439 53.4167 17.7566 53.7656 19.5348C54.1044 21.3148 55.1836 22.7721 56.1046 23.6942C56.5672 24.1602 56.9898 24.5095 57.2941 24.7403C57.6024 24.9675 57.7755 25.0952 57.7755 25.0952C57.7755 25.0952 57.5652 25.0329 57.1933 24.8891C56.8234 24.7434 56.2967 24.5015 55.6982 24.1133C55.1045 23.7226 54.4304 23.1862 53.8481 22.4486C53.2626 21.7203 52.7581 20.7877 52.5593 19.728C52.3463 18.6689 52.4822 17.6406 52.7398 16.774C53.009 15.9056 53.3917 15.1816 53.7656 14.6138C54.1396 14.0441 54.4912 13.6189 54.7475 13.3356C55.0017 13.0523 55.1539 12.9048 55.1539 12.9048Z" fill="#3A3750"/>
<path fill-rule="evenodd" clip-rule="evenodd" d="M57.7705 14.4286C57.7705 14.4286 57.7105 14.5511 57.6063 14.7651C57.502 14.9798 57.3492 15.2889 57.2014 15.6645C57.0507 16.0438 56.9279 16.4749 56.8786 16.9694C56.8236 17.4651 56.8308 18.0291 56.8001 18.6547C56.7644 19.2779 56.7265 19.7931 56.8101 20.2699C56.8865 20.751 57.0414 21.1973 57.1964 21.5729C57.3513 21.9504 57.5049 22.2583 57.6098 22.4729C57.7155 22.6863 57.7755 22.8095 57.7755 22.8095C57.7755 22.8095 57.6527 22.7309 57.4456 22.5735C57.2399 22.4162 56.9465 22.1809 56.6323 21.8437C56.3195 21.5071 55.9789 21.0644 55.7504 20.4925C55.5091 19.9169 55.4691 19.2285 55.5076 18.6065C55.5383 17.9852 55.6133 17.3559 55.8083 16.7889C55.9975 16.2176 56.3224 15.7389 56.6323 15.4017C56.9443 15.059 57.2357 14.8225 57.442 14.6651C57.6484 14.5078 57.7705 14.4286 57.7705 14.4286Z" fill="#3A3750"/>
<path fill-rule="evenodd" clip-rule="evenodd" d="M73.0217 8.33334C73.0217 8.33334 73.1326 8.41516 73.3214 8.57816C73.5102 8.74116 73.7793 8.98412 74.0795 9.3312C74.3757 9.67952 74.71 10.1369 74.9578 10.7474C75.206 11.348 75.3435 12.1357 75.2055 12.9197C75.0779 13.7044 74.7199 14.3899 74.277 14.8764C73.8312 15.3654 73.322 15.6456 72.8872 15.7931C72.4501 15.9418 72.0823 15.9579 71.8374 15.9511C71.5903 15.9387 71.4592 15.9077 71.4592 15.9077C71.4592 15.9077 71.5903 15.8681 71.8103 15.7776C72.0291 15.6834 72.3363 15.534 72.6608 15.2867C73.3202 14.8076 73.9946 13.9015 74.1754 12.7233C74.3855 11.5692 73.9975 10.4493 73.6465 9.64605C73.4698 9.24443 73.3075 8.91718 73.1955 8.68972C73.0846 8.46226 73.0217 8.33334 73.0217 8.33334Z" fill="#3A3750"/>
<path fill-rule="evenodd" clip-rule="evenodd" d="M72.9795 4.5238C72.9795 4.5238 73.3282 4.5639 73.8564 4.73077C74.3783 4.90023 75.1126 5.20874 75.7583 5.87816C76.4086 6.55275 76.7262 7.44271 76.7696 8.08238C76.7955 8.40383 76.7714 8.66124 76.7379 8.83329C76.7057 9.00533 76.6751 9.09523 76.6751 9.09523C76.6751 9.09523 76.546 8.72786 76.2654 8.26865C75.9878 7.80297 75.547 7.27196 75.0251 6.72673C74.4992 6.17762 73.9727 5.65437 73.5894 5.23785C73.2043 4.82391 72.9795 4.5238 72.9795 4.5238Z" fill="#3A3750"/>
<path fill-rule="evenodd" clip-rule="evenodd" d="M76.4118 24.1658C74.6215 24.1658 73.1651 22.7028 73.1651 20.9039C73.1651 19.1069 74.6215 17.6434 76.4118 17.6434C78.202 17.6434 79.6584 19.1069 79.6584 20.9039C79.6584 22.7028 78.202 24.1658 76.4118 24.1658ZM77.5356 16.078C74.4381 15.3862 71.6826 17.6434 71.4979 20.5903L63.0723 21.6757C62.6104 21.7359 62.2849 22.1595 62.3435 22.6228C62.4034 23.0862 62.8251 23.4132 63.2864 23.3537L71.6775 22.2728C72.2707 24.3392 74.1666 25.8572 76.4118 25.8572C79.4832 25.8572 81.9073 23.0202 81.2263 19.8186C80.8345 17.978 79.3647 16.4863 77.5356 16.078Z" fill="white"/>
<path fill-rule="evenodd" clip-rule="evenodd" d="M89.0862 99.7619H107.949C107.949 99.7619 107.949 96.3279 107.015 95.6936C106.08 95.0586 97.1509 90.619 97.1509 90.619L88.1866 92.3185L86.6633 98.1246L89.0862 99.7619Z" fill="#FFDFC4"/>
<path fill-rule="evenodd" clip-rule="evenodd" d="M85.9031 85.5605C74.2021 86.8957 58.1761 86.1504 58.1761 86.1504L61.7894 58.7312C62.628 52.3663 61.3585 45.9004 58.1761 40.3333C58.1761 40.3333 46.156 49.5348 45.139 66.4338C44.1227 83.334 45.9902 93.4519 47.8578 97.3636C49.1085 99.9841 70.9312 99.9292 85.2071 99.6064L85.9031 85.5605Z" fill="#3EB16E"/>
<path fill-rule="evenodd" clip-rule="evenodd" d="M85.729 87.1846L90.4643 86.8095L89.0559 99.7619L85.1428 99.6031L85.729 87.1846Z" fill="white"/>
<path fill-rule="evenodd" clip-rule="evenodd" d="M83.7383 105.857H107.189V111.952H83.7383C82.4146 111.952 81.3418 110.92 81.3418 109.646V108.164C81.3418 106.89 82.4146 105.857 83.7383 105.857Z" fill="#00DE91"/>
<path fill-rule="evenodd" clip-rule="evenodd" d="M84.365 106.619H107.189V110.429H84.365C83.535 110.429 82.8623 109.783 82.8623 108.987V108.06C82.8623 107.264 83.535 106.619 84.365 106.619Z" fill="white"/>
<path fill-rule="evenodd" clip-rule="evenodd" d="M105.553 105.095H82.1021V99H105.553C106.876 99 107.949 100.033 107.949 101.306V102.788C107.949 104.063 106.876 105.095 105.553 105.095Z" fill="#FF7292"/>
<path fill-rule="evenodd" clip-rule="evenodd" d="M104.926 104.333H82.1021V100.524H104.926C105.756 100.524 106.429 101.169 106.429 101.965V102.892C106.429 103.688 105.756 104.333 104.926 104.333Z" fill="white"/>
<path fill-rule="evenodd" clip-rule="evenodd" d="M103.388 105.857L101.867 105.111L100.347 105.857V102.81H103.388V105.857Z" fill="#242143"/>
<path fill-rule="evenodd" clip-rule="evenodd" d="M215.893 193.095C215.893 193.095 205.172 195 191.946 195C178.721 195 168 193.095 168 193.095C168 193.095 178.721 191.19 191.946 191.19C205.172 191.19 215.893 193.095 215.893 193.095Z" fill="#D3D3D3"/>
<path fill-rule="evenodd" clip-rule="evenodd" d="M257 149.905C257 149.905 250.956 151.81 243.5 151.81C236.044 151.81 230 149.905 230 149.905C230 149.905 236.044 148 243.5 148C250.956 148 257 149.905 257 149.905Z" fill="#D3D3D3"/>
<path fill-rule="evenodd" clip-rule="evenodd" d="M185.998 137.302C190.796 142.111 189.947 150.751 189.947 150.751C189.947 150.751 181.322 151.606 176.524 146.797C171.726 141.989 172.579 133.344 172.579 133.344C172.579 133.344 181.2 132.494 185.998 137.302Z" fill="#00DE91"/>
<path fill-rule="evenodd" clip-rule="evenodd" d="M171.819 133.286L189.245 150.751C189.245 150.751 180.591 151.608 175.777 146.784C170.964 141.959 171.819 133.286 171.819 133.286Z" fill="#3EB16E"/>
<path fill-rule="evenodd" clip-rule="evenodd" d="M195.532 137.302C190.735 142.111 191.583 150.751 191.583 150.751C191.583 150.751 200.209 151.606 205.006 146.797C209.804 141.989 208.952 133.344 208.952 133.344C208.952 133.344 200.33 132.494 195.532 137.302Z" fill="#00DE91"/>
<path fill-rule="evenodd" clip-rule="evenodd" d="M208.951 133.286L191.525 150.751C191.525 150.751 200.18 151.608 204.993 146.784C209.806 141.959 208.951 133.286 208.951 133.286Z" fill="#3EB16E"/>
<path fill-rule="evenodd" clip-rule="evenodd" d="M186.695 119.842C190.658 123.814 189.957 130.951 189.957 130.951C189.957 130.951 182.832 131.658 178.869 127.685C174.906 123.714 175.61 116.572 175.61 116.572C175.61 116.572 182.732 115.869 186.695 119.842Z" fill="#00DE91"/>
<path fill-rule="evenodd" clip-rule="evenodd" d="M175.61 116.524L190.005 130.951C190.005 130.951 182.856 131.66 178.879 127.674C174.904 123.689 175.61 116.524 175.61 116.524Z" fill="#3EB16E"/>
<path fill-rule="evenodd" clip-rule="evenodd" d="M194.836 119.842C190.872 123.814 191.573 130.951 191.573 130.951C191.573 130.951 198.699 131.658 202.662 127.685C206.625 123.714 205.921 116.572 205.921 116.572C205.921 116.572 198.799 115.869 194.836 119.842Z" fill="#00DE91"/>
<path fill-rule="evenodd" clip-rule="evenodd" d="M205.921 116.524L191.525 130.951C191.525 130.951 198.675 131.66 202.651 127.674C206.627 123.689 205.921 116.524 205.921 116.524Z" fill="#3EB16E"/>
<path fill-rule="evenodd" clip-rule="evenodd" d="M187.566 106.016C190.486 108.942 189.97 114.202 189.97 114.202C189.97 114.202 184.719 114.722 181.8 111.795C178.879 108.868 179.398 103.607 179.398 103.607C179.398 103.607 184.646 103.089 187.566 106.016Z" fill="#00DE91"/>
<path fill-rule="evenodd" clip-rule="evenodd" d="M179.398 103.571L190.005 114.202C190.005 114.202 184.737 114.724 181.808 111.787C178.877 108.851 179.398 103.571 179.398 103.571Z" fill="#3EB16E"/>
<path fill-rule="evenodd" clip-rule="evenodd" d="M193.965 106.016C191.045 108.942 191.561 114.202 191.561 114.202C191.561 114.202 196.811 114.722 199.732 111.795C202.652 108.868 202.133 103.607 202.133 103.607C202.133 103.607 196.885 103.089 193.965 106.016Z" fill="#00DE91"/>
<path fill-rule="evenodd" clip-rule="evenodd" d="M202.132 103.571L191.525 114.202C191.525 114.202 196.793 114.724 199.724 111.787C202.653 108.851 202.132 103.571 202.132 103.571Z" fill="#3EB16E"/>
<path fill-rule="evenodd" clip-rule="evenodd" d="M189.245 163H191.525V102.048H189.245V163Z" fill="#3EB16E"/>
<path fill-rule="evenodd" clip-rule="evenodd" d="M189.023 96.9368C191.108 99.0269 190.74 102.784 190.74 102.784C190.74 102.784 186.99 103.155 184.904 101.065C182.818 98.974 183.189 95.2157 183.189 95.2157C183.189 95.2157 186.937 94.8461 189.023 96.9368Z" fill="#00DE91"/>
<path fill-rule="evenodd" clip-rule="evenodd" d="M183.189 95.1905L190.765 102.784C190.765 102.784 187.003 103.157 184.91 101.059C182.817 98.9613 183.189 95.1905 183.189 95.1905Z" fill="#3EB16E"/>
<path fill-rule="evenodd" clip-rule="evenodd" d="M192.508 96.9368C190.422 99.0269 190.791 102.784 190.791 102.784C190.791 102.784 194.541 103.155 196.627 101.065C198.713 98.974 198.342 95.2157 198.342 95.2157C198.342 95.2157 194.593 94.8461 192.508 96.9368Z" fill="#00DE91"/>
<path fill-rule="evenodd" clip-rule="evenodd" d="M198.342 95.1905L190.765 102.784C190.765 102.784 194.528 103.157 196.621 101.059C198.714 98.9613 198.342 95.1905 198.342 95.1905Z" fill="#3EB16E"/>
<path fill-rule="evenodd" clip-rule="evenodd" d="M201.738 192.714H179.793L174.801 165.286H206.73L201.738 192.714Z" fill="#3B4182"/>
<path fill-rule="evenodd" clip-rule="evenodd" d="M171 169.095H209.77V162.238H171V169.095Z" fill="#0074E4"/>
<path d="M251 26.4634H327.95V140.588H251V26.4634Z" fill="#E0B022"/>
<path d="M306.979 143.541L251 140.588V26.4634L306.979 23.5104V143.541Z" fill="#FFC107"/>
<path d="M302.3 89.6923C302.683 89.6923 302.993 89.3812 302.993 88.9975C302.993 88.6138 302.683 88.3027 302.3 88.3027C301.917 88.3027 301.607 88.6138 301.607 88.9975C301.607 89.3812 301.917 89.6923 302.3 89.6923Z" fill="#252A62"/>
<path d="M302.3 89.1017L302.78 89.9355L303.262 90.7693H302.3H301.338L301.82 89.9355L302.3 89.1017Z" fill="#252A62"/>
<path d="M309.406 143.541L305.978 143.531L306.113 23.5104H309.406V143.541Z" fill="#FFC107"/>
<g opacity="0.1">
<path d="M309.444 143.531H305.978L306.151 23.5H309.444V143.531Z" fill="white"/>
</g>
<path opacity="0.1" d="M302.3 86.2182C303.544 86.2182 304.553 85.2072 304.553 83.96C304.553 82.7129 303.544 81.7018 302.3 81.7018C301.056 81.7018 300.047 82.7129 300.047 83.96C300.047 85.2072 301.056 86.2182 302.3 86.2182Z" fill="black"/>
<path d="M302.3 85.8708C303.544 85.8708 304.553 84.8598 304.553 83.6126C304.553 82.3655 303.544 81.3544 302.3 81.3544C301.056 81.3544 300.047 82.3655 300.047 83.6126C300.047 84.8598 301.056 85.8708 302.3 85.8708Z" fill="#252A62"/>
<path opacity="0.1" d="M260.154 26.2984V141.127" stroke="black" stroke-width="0.5"/>
<path opacity="0.1" d="M270.033 25.6036V141.474" stroke="black" stroke-width="0.5"/>
<path opacity="0.1" d="M279.912 25.0825V142.141" stroke="black" stroke-width="0.5"/>
<path opacity="0.1" d="M289.79 24.5613V142.864" stroke="black" stroke-width="0.5"/>
<path opacity="0.1" d="M299.669 24.0402V143.01" stroke="black" stroke-width="0.5"/>
<g opacity="0.5">
<path d="M263.204 132.122C263.168 134.68 261.005 136.705 258.442 136.705H258.085C257.77 136.704 257.467 136.826 257.241 137.046C257.069 137.206 256.95 137.414 256.898 137.643C256.874 137.736 256.862 137.831 256.862 137.927V142.442C256.863 143.31 256.614 144.161 256.145 144.891C255.462 145.927 255.092 147.138 255.078 148.378C255.078 148.962 254.843 149.522 254.425 149.932C254.008 150.342 253.442 150.568 252.857 150.557C251.658 150.536 250.719 149.506 250.719 148.311V147.18L250.124 147.249V148.381C250.124 148.965 249.889 149.526 249.472 149.935C249.054 150.345 248.489 150.571 247.903 150.561C246.704 150.539 245.765 149.51 245.765 148.314V147.742C245.171 147.99 241.802 147.99 240.866 147.75L240.612 147.73V148.385C240.612 148.97 240.377 149.53 239.959 149.94C239.542 150.35 238.976 150.575 238.391 150.565C237.192 150.543 236.253 149.514 236.253 148.318V147.384L236.054 147.367V148.396C236.055 148.578 236.032 148.76 235.987 148.937C235.736 149.914 234.844 150.591 233.834 150.573C232.745 150.532 231.848 149.709 231.715 148.63C231.702 148.527 231.696 148.423 231.695 148.318V143.579C231.692 141.955 232.236 140.376 233.239 139.098C233.596 138.634 233.612 137.993 233.277 137.513C232.166 135.89 230.525 133.153 230.58 131.211C230.569 130.685 230.754 130.173 231.099 129.774L231.165 129.706C232.762 128.043 235.574 129.354 235.332 131.649C235.25 132.418 235.307 133.195 235.501 133.944C235.611 134.367 235.76 134.779 235.947 135.174C236.329 135.988 237.191 136.466 238.085 136.36C238.382 136.325 238.68 136.307 238.979 136.308H248.142C249.244 136.308 250.225 135.607 250.58 134.565C250.673 134.299 250.72 134.019 250.719 133.737V126.613C250.719 126.239 250.871 125.88 251.141 125.619C251.41 125.359 251.774 125.218 252.149 125.229C252.515 125.242 252.861 125.402 253.106 125.675C253.355 125.948 253.493 126.304 253.493 126.673C253.493 127.078 253.822 127.406 254.228 127.406H258.547C259.794 127.405 260.989 127.904 261.864 128.791C262.74 129.677 263.222 130.877 263.204 132.122Z" fill="url(#paint0_linear)"/>
<path d="M235.986 148.916C235.734 149.894 234.843 150.571 233.832 150.553C232.744 150.512 231.846 149.689 231.714 148.61C233.033 148.255 234.864 148.009 235.986 148.916Z" fill="url(#paint1_linear)"/>
<path d="M240.545 148.916C240.293 149.894 239.402 150.571 238.391 150.553C237.301 150.514 236.401 149.69 236.268 148.61C237.591 148.255 239.42 148.009 240.545 148.916Z" fill="url(#paint2_linear)"/>
<path d="M250.057 148.916C249.805 149.894 248.914 150.571 247.903 150.553C246.814 150.513 245.915 149.69 245.782 148.61C247.103 148.255 248.933 148.009 250.057 148.916Z" fill="url(#paint3_linear)"/>
<path d="M255.011 148.916C254.759 149.894 253.868 150.571 252.857 150.553C251.769 150.512 250.871 149.689 250.739 148.61C252.058 148.255 253.892 148.009 255.011 148.916Z" fill="url(#paint4_linear)"/>
<path d="M235.498 133.944C233.958 133.321 232.079 132.197 230.579 131.216C230.568 130.689 230.753 130.177 231.098 129.779L231.163 129.71C232.762 128.043 235.574 129.354 235.332 131.649C235.249 132.418 235.305 133.195 235.498 133.944Z" fill="url(#paint5_linear)"/>
<path d="M237.36 136.322C237.36 136.322 241.601 141.65 248.537 136.307L237.36 136.322Z" fill="url(#paint6_linear)"/>
<path d="M250.719 126.416C250.719 126.416 253.295 129.779 250.719 133.935V126.416Z" fill="url(#paint7_linear)"/>
<path d="M256.856 137.891C256.856 137.891 254.587 140.706 256.828 142.942L256.856 137.891Z" fill="url(#paint8_linear)"/>
<g opacity="0.1">
<path d="M257.06 137.298C256.892 137.453 256.95 137.609 256.904 137.84L249.525 135.912C249.922 135.601 250.413 135.246 250.575 134.763C251.464 135.448 253.209 136.596 257.06 137.298Z" fill="url(#paint9_linear)"/>
</g>
<path d="M257.241 137.044C257.07 137.205 256.95 137.413 256.898 137.642L249.724 135.773C250.125 135.465 250.425 135.045 250.588 134.567C251.464 135.249 253.39 136.342 257.241 137.044Z" fill="url(#paint10_linear)"/>
<path opacity="0.1" d="M250.85 134.961C250.85 134.961 253.097 136.647 256.856 137.17L250.85 134.961Z" fill="url(#paint11_linear)"/>
<path d="M250.85 134.763C250.85 134.763 253.097 136.451 256.856 136.972L250.85 134.763Z" fill="url(#paint12_linear)"/>
<g opacity="0.1">
<path d="M256.466 134.923C256.466 134.923 260.231 136.11 261.223 132.351L256.466 134.923Z" fill="url(#paint13_linear)"/>
</g>
<path d="M256.466 134.726C256.466 134.726 260.231 135.912 261.223 132.153L256.466 134.726Z" fill="url(#paint14_linear)"/>
<path d="M263.205 132.351C262.987 132.351 262.809 132.041 262.809 131.658C262.809 131.276 262.987 130.965 263.205 130.965C263.424 130.965 263.602 131.276 263.602 131.658C263.602 132.041 263.424 132.351 263.205 132.351Z" fill="url(#paint15_linear)"/>
<path opacity="0.1" d="M233.18 145.904L233.972 139.565C233.972 139.565 231.594 143.323 233.18 145.896" fill="url(#paint16_linear)"/>
<path d="M234.17 139.565C234.17 139.565 231.792 143.323 233.378 145.896L234.17 139.565Z" fill="url(#paint17_linear)"/>
</g>
<path d="M262.471 132.385C262.437 134.827 260.373 136.758 257.928 136.758H257.588C257.286 136.756 256.997 136.873 256.781 137.083C256.617 137.236 256.503 137.434 256.454 137.653C256.431 137.741 256.419 137.831 256.419 137.922V142.232C256.42 143.06 256.182 143.871 255.735 144.568C255.084 145.556 254.731 146.71 254.718 147.893C254.717 148.451 254.493 148.985 254.094 149.376C253.696 149.766 253.157 149.981 252.598 149.971C251.453 149.95 250.558 148.968 250.558 147.826V146.749L249.99 146.814V147.895C249.99 148.453 249.765 148.987 249.367 149.377C248.968 149.768 248.429 149.982 247.871 149.972C246.726 149.952 245.831 148.969 245.831 147.828V147.283C245.263 147.52 242.049 147.52 241.152 147.283L240.91 147.264V147.887C240.91 148.445 240.685 148.979 240.286 149.369C239.888 149.76 239.349 149.974 238.79 149.964C237.646 149.944 236.75 148.962 236.75 147.82V146.923L236.562 146.906V147.887C236.562 148.061 236.54 148.234 236.498 148.403C236.255 149.334 235.405 149.978 234.442 149.96C233.401 149.924 232.541 149.137 232.414 148.105C232.402 148.009 232.396 147.911 232.396 147.814V143.299C232.394 141.75 232.914 140.245 233.871 139.026C234.212 138.584 234.226 137.972 233.907 137.514C232.848 135.967 231.282 133.354 231.334 131.501C231.323 130.999 231.5 130.51 231.829 130.131L231.892 130.065C233.416 128.473 236.103 129.726 235.867 131.915C235.787 132.648 235.84 133.39 236.023 134.104C236.128 134.508 236.271 134.901 236.449 135.278C236.814 136.055 237.636 136.511 238.489 136.41C238.772 136.376 239.057 136.359 239.342 136.359H248.094C249.146 136.358 250.08 135.69 250.419 134.696C250.508 134.442 250.553 134.174 250.552 133.905V127.13C250.552 126.773 250.697 126.43 250.954 126.181C251.211 125.932 251.558 125.797 251.917 125.808C252.266 125.82 252.596 125.974 252.831 126.234C253.067 126.494 253.198 126.833 253.199 127.185C253.199 127.572 253.513 127.886 253.901 127.886H258.023C259.213 127.884 260.355 128.359 261.191 129.205C262.027 130.051 262.489 131.197 262.471 132.385Z" fill="#F3AD55"/>
<path d="M236.494 148.412C236.252 149.343 235.402 149.987 234.439 149.969C233.398 149.933 232.538 149.146 232.411 148.115C233.678 147.78 235.423 147.545 236.494 148.412Z" fill="#F38143"/>
<path d="M240.844 148.412C240.602 149.343 239.752 149.987 238.789 149.969C237.748 149.933 236.888 149.146 236.761 148.115C238.026 147.78 239.771 147.545 240.844 148.412Z" fill="#F38143"/>
<path d="M249.922 148.412C249.679 149.343 248.829 149.987 247.866 149.969C246.825 149.933 245.965 149.146 245.838 148.115C247.103 147.78 248.849 147.545 249.922 148.412Z" fill="#F38143"/>
<path d="M254.649 148.412C254.407 149.343 253.557 149.987 252.594 149.969C251.553 149.933 250.693 149.146 250.566 148.115C251.831 147.78 253.581 147.545 254.649 148.412Z" fill="#F38143"/>
<path d="M236.03 134.125C234.56 133.536 232.767 132.457 231.336 131.521C231.326 131.019 231.502 130.53 231.832 130.151L231.895 130.086C233.419 128.493 236.106 129.746 235.87 131.935C235.791 132.669 235.845 133.41 236.03 134.125Z" fill="#F8DEA5"/>
<path d="M237.808 136.393C237.808 136.393 241.853 141.478 248.473 136.381L237.808 136.393Z" fill="#F8DEA5"/>
<path d="M250.553 126.942C250.553 126.942 253.011 130.151 250.553 134.115V126.942Z" fill="#F8DEA5"/>
<path d="M256.415 137.891C256.415 137.891 254.25 140.577 256.388 142.718L256.415 137.891Z" fill="#F8DEA5"/>
<path opacity="0.1" d="M256.603 137.324C256.447 137.48 256.497 137.62 256.447 137.841L249.416 136.002C249.794 135.711 250.263 135.366 250.419 134.912C251.263 135.559 252.93 136.655 256.603 137.324Z" fill="black"/>
<path d="M256.777 137.083C256.613 137.236 256.499 137.434 256.449 137.653L249.596 135.868C249.979 135.574 250.266 135.173 250.421 134.716C251.263 135.37 253.102 136.412 256.777 137.083Z" fill="#383F4D"/>
<path opacity="0.1" d="M250.678 135.095C250.678 135.095 252.823 136.705 256.415 137.203L250.678 135.095Z" fill="black"/>
<path d="M250.678 134.906C250.678 134.906 252.823 136.516 256.415 137.014L250.678 134.906Z" fill="#F3AD55"/>
<path opacity="0.1" d="M257.129 135.682C257.129 135.682 260.716 136.814 261.668 133.228L257.129 135.682Z" fill="black"/>
<path d="M257.129 135.493C257.129 135.493 260.716 136.625 261.668 133.039L257.129 135.493Z" fill="#F3AD55"/>
<path d="M262.466 132.605C262.258 132.605 262.089 132.309 262.089 131.945C262.089 131.58 262.258 131.285 262.466 131.285C262.675 131.285 262.844 131.58 262.844 131.945C262.844 132.309 262.675 132.605 262.466 132.605Z" fill="#383F4D"/>
<path opacity="0.1" d="M233.817 145.536L234.573 139.495C234.573 139.495 232.304 143.076 233.817 145.536Z" fill="black"/>
<path d="M234.762 139.495C234.762 139.495 232.492 143.076 234.005 145.536L234.762 139.495Z" fill="#F3AD55"/>
<defs>
<linearGradient id="paint0_linear" x1="222.914" y1="150.553" x2="222.914" y2="125.228" gradientUnits="userSpaceOnUse">
<stop stop-color="#808080" stop-opacity="0.25"/>
<stop offset="0.54" stop-color="#808080" stop-opacity="0.12"/>
<stop offset="1" stop-color="#808080" stop-opacity="0.1"/>
</linearGradient>
<linearGradient id="paint1_linear" x1="250.12" y1="150.553" x2="250.12" y2="148.289" gradientUnits="userSpaceOnUse">
<stop stop-color="#808080" stop-opacity="0.25"/>
<stop offset="0.54" stop-color="#808080" stop-opacity="0.12"/>
<stop offset="1" stop-color="#808080" stop-opacity="0.1"/>
</linearGradient>
<linearGradient id="paint2_linear" x1="245.559" y1="150.553" x2="245.559" y2="148.289" gradientUnits="userSpaceOnUse">
<stop stop-color="#808080" stop-opacity="0.25"/>
<stop offset="0.54" stop-color="#808080" stop-opacity="0.12"/>
<stop offset="1" stop-color="#808080" stop-opacity="0.1"/>
</linearGradient>
<linearGradient id="paint3_linear" x1="236.048" y1="150.553" x2="236.048" y2="148.289" gradientUnits="userSpaceOnUse">
<stop stop-color="#808080" stop-opacity="0.25"/>
<stop offset="0.54" stop-color="#808080" stop-opacity="0.12"/>
<stop offset="1" stop-color="#808080" stop-opacity="0.1"/>
</linearGradient>
<linearGradient id="paint4_linear" x1="231.094" y1="150.553" x2="231.094" y2="148.289" gradientUnits="userSpaceOnUse">
<stop stop-color="#808080" stop-opacity="0.25"/>
<stop offset="0.54" stop-color="#808080" stop-opacity="0.12"/>
<stop offset="1" stop-color="#808080" stop-opacity="0.1"/>
</linearGradient>
<linearGradient id="paint5_linear" x1="250.607" y1="133.944" x2="250.607" y2="128.957" gradientUnits="userSpaceOnUse">
<stop stop-color="#808080" stop-opacity="0.25"/>
<stop offset="0.54" stop-color="#808080" stop-opacity="0.12"/>
<stop offset="1" stop-color="#808080" stop-opacity="0.1"/>
</linearGradient>
<linearGradient id="paint6_linear" x1="237.568" y1="138.685" x2="237.568" y2="136.307" gradientUnits="userSpaceOnUse">
<stop stop-color="#808080" stop-opacity="0.25"/>
<stop offset="0.54" stop-color="#808080" stop-opacity="0.12"/>
<stop offset="1" stop-color="#808080" stop-opacity="0.1"/>
</linearGradient>
<linearGradient id="paint7_linear" x1="234.242" y1="133.933" x2="234.242" y2="126.416" gradientUnits="userSpaceOnUse">
<stop stop-color="#808080" stop-opacity="0.25"/>
<stop offset="0.54" stop-color="#808080" stop-opacity="0.12"/>
<stop offset="1" stop-color="#808080" stop-opacity="0.1"/>
</linearGradient>
<linearGradient id="paint8_linear" x1="229.243" y1="142.942" x2="229.243" y2="137.891" gradientUnits="userSpaceOnUse">
<stop stop-color="#808080" stop-opacity="0.25"/>
<stop offset="0.54" stop-color="#808080" stop-opacity="0.12"/>
<stop offset="1" stop-color="#808080" stop-opacity="0.1"/>
</linearGradient>
<linearGradient id="paint9_linear" x1="229.043" y1="137.84" x2="229.043" y2="134.763" gradientUnits="userSpaceOnUse">
<stop stop-color="#808080" stop-opacity="0.25"/>
<stop offset="0.54" stop-color="#808080" stop-opacity="0.12"/>
<stop offset="1" stop-color="#808080" stop-opacity="0.1"/>
</linearGradient>
<linearGradient id="paint10_linear" x1="228.866" y1="137.642" x2="228.866" y2="134.565" gradientUnits="userSpaceOnUse">
<stop stop-color="#808080" stop-opacity="0.25"/>
<stop offset="0.54" stop-color="#808080" stop-opacity="0.12"/>
<stop offset="1" stop-color="#808080" stop-opacity="0.1"/>
</linearGradient>
<linearGradient id="paint11_linear" x1="229.246" y1="137.17" x2="229.246" y2="134.961" gradientUnits="userSpaceOnUse">
<stop stop-color="#808080" stop-opacity="0.25"/>
<stop offset="0.54" stop-color="#808080" stop-opacity="0.12"/>
<stop offset="1" stop-color="#808080" stop-opacity="0.1"/>
</linearGradient>
<linearGradient id="paint12_linear" x1="229.246" y1="136.972" x2="229.246" y2="134.763" gradientUnits="userSpaceOnUse">
<stop stop-color="#808080" stop-opacity="0.25"/>
<stop offset="0.54" stop-color="#808080" stop-opacity="0.12"/>
<stop offset="1" stop-color="#808080" stop-opacity="0.1"/>
</linearGradient>
<linearGradient id="paint13_linear" x1="224.883" y1="135.101" x2="224.883" y2="132.351" gradientUnits="userSpaceOnUse">
<stop stop-color="#808080" stop-opacity="0.25"/>
<stop offset="0.54" stop-color="#808080" stop-opacity="0.12"/>
<stop offset="1" stop-color="#808080" stop-opacity="0.1"/>
</linearGradient>
<linearGradient id="paint14_linear" x1="224.883" y1="134.903" x2="224.883" y2="132.153" gradientUnits="userSpaceOnUse">
<stop stop-color="#808080" stop-opacity="0.25"/>
<stop offset="0.54" stop-color="#808080" stop-opacity="0.12"/>
<stop offset="1" stop-color="#808080" stop-opacity="0.1"/>
</linearGradient>
<linearGradient id="paint15_linear" x1="262.808" y1="132.351" x2="262.808" y2="130.965" gradientUnits="userSpaceOnUse">
<stop stop-color="#808080" stop-opacity="0.25"/>
<stop offset="0.54" stop-color="#808080" stop-opacity="0.12"/>
<stop offset="1" stop-color="#808080" stop-opacity="0.1"/>
</linearGradient>
<linearGradient id="paint16_linear" x1="252.134" y1="145.904" x2="252.134" y2="139.573" gradientUnits="userSpaceOnUse">
<stop stop-color="#808080" stop-opacity="0.25"/>
<stop offset="0.54" stop-color="#808080" stop-opacity="0.12"/>
<stop offset="1" stop-color="#808080" stop-opacity="0.1"/>
</linearGradient>
<linearGradient id="paint17_linear" x1="251.935" y1="145.904" x2="251.935" y2="139.573" gradientUnits="userSpaceOnUse">
<stop stop-color="#808080" stop-opacity="0.25"/>
<stop offset="0.54" stop-color="#808080" stop-opacity="0.12"/>
<stop offset="1" stop-color="#808080" stop-opacity="0.1"/>
</linearGradient>
</defs>
</svg>
