<svg width="16" height="12" viewBox="0 0 16 12" fill="none" xmlns="http://www.w3.org/2000/svg">
<path fill-rule="evenodd" clip-rule="evenodd" d="M14.3853 0.293578C14.581 0.0978583 14.8061 0 15.0606 0C15.315 0 15.5401 0.0978583 15.7358 0.293578C15.9119 0.469726 16 0.689907 16 0.954128C16 1.21835 15.9119 1.43853 15.7358 1.61468L6.37064 11.0385L6.25321 11.156C6.07706 11.3517 5.85688 11.4495 5.59266 11.4495C5.32844 11.4495 5.10826 11.3517 4.93211 11.156L0.26422 6.51743C0.0880725 6.34128 0 6.1211 0 5.85688C0 5.59266 0.0880725 5.37248 0.26422 5.19633C0.45994 5.00061 0.685014 4.90275 0.93945 4.90275C1.19389 4.90275 1.41896 5.00061 1.61468 5.19633L5.57798 9.15963L14.3853 0.293578Z" fill="white"/>
</svg>
