<svg width="34" height="34" viewBox="0 0 34 34" fill="none" xmlns="http://www.w3.org/2000/svg">
<path fill-rule="evenodd" clip-rule="evenodd" d="M21 7.08329V2.125C21 0.951402 20.0598 0 18.9 0H2.1C0.940209 0 0 0.951402 0 2.125V31.875C0 33.0486 0.940209 34 2.1 34H18.9C20.0598 34 21 33.0486 21 31.875V26.9166H19.6V28.3334H1.39998V5.66664H19.6V7.08329H21ZM19.6 29.75V31.875C19.6 32.2662 19.2866 32.5834 18.9 32.5834H2.1C1.7134 32.5834 1.39998 32.2662 1.39998 31.875V29.75H19.6ZM1.39998 2.125V4.25H19.6V2.125C19.6 1.7338 19.2866 1.41664 18.9 1.41664H2.1C1.7134 1.41664 1.39998 1.7338 1.39998 2.125Z" fill="#3EB16E"/>
<rect x="9" y="2" width="4" height="1" fill="#3EB16E"/>
<path d="M4.59999 25.4V23H3V26.2C3 26.6418 3.3582 27 3.80003 27H7V25.4H4.59999Z" fill="#3EB16E"/>
<rect x="3" y="21" width="1" height="1" fill="#3EB16E"/>
<path d="M3.80001 7C3.3582 7 3 7.3582 3 7.80003V11H4.60003V8.59999H7V7H3.80001Z" fill="#3EB16E"/>
<rect x="3" y="12" width="1" height="1" fill="#3EB16E"/>
<path fill-rule="evenodd" clip-rule="evenodd" d="M10.1667 9H31.8333C33.0299 9 34 9.9514 34 11.125V23.875C34 25.0486 33.0299 26 31.8333 26H10.1667C8.97006 26 8 25.0486 8 23.875V11.125C8 9.9514 8.97006 9 10.1667 9ZM31.8333 24.5834C32.2322 24.5834 32.5556 24.2662 32.5556 23.875V11.125C32.5556 10.7338 32.2322 10.4166 31.8333 10.4166H10.1667C9.7678 10.4166 9.44442 10.7338 9.44442 11.125V23.875C9.44442 24.2662 9.7678 24.5834 10.1667 24.5834H31.8333Z" fill="#3EB16E"/>
</svg>
