<svg width="29" height="34" viewBox="0 0 29 34" fill="none" xmlns="http://www.w3.org/2000/svg">
<path fill-rule="evenodd" clip-rule="evenodd" d="M22.525 0.485718H26.8964C27.4428 0.485718 27.8071 0.910718 28.05 1.33572V5.70715C28.05 6.19286 27.625 6.61786 27.1393 6.61786C26.6536 6.61786 26.2286 6.19286 26.2286 5.70715V3.52143L21.7964 7.95358C23.2536 9.71429 24.1036 11.9607 24.1036 14.3893C24.1036 19.6107 20.0964 23.8607 14.9964 24.3464V28.7179H17.1214C17.6071 28.7179 18.0321 29.1429 18.0321 29.6286C18.0321 30.1143 17.6071 30.5393 17.1214 30.5393H14.9964V32.6036C14.9964 33.0893 14.5714 33.5143 14.0857 33.5143C13.6 33.5143 13.175 33.0893 13.175 32.6036V30.5393H11.05C10.5643 30.5393 10.1393 30.1143 10.1393 29.6286C10.1393 29.1429 10.5643 28.7179 11.05 28.7179H13.175V24.3464C8.07499 23.9214 4.06784 19.6107 4.06784 14.3893C4.06784 11.9 4.91784 9.71429 6.37499 7.95358L5.46427 7.04286L3.94641 8.56072C3.76427 8.74286 3.52141 8.80357 3.27856 8.80357C3.0357 8.80357 2.79284 8.74286 2.6107 8.56072C2.24641 8.19643 2.24641 7.65 2.6107 7.28572L4.12856 5.76786L2.00356 3.64286V5.70715C2.00356 6.19286 1.57856 6.61786 1.09284 6.61786C0.607129 6.61786 0.182129 6.19286 0.182129 5.70715V1.45715C0.182129 1.39643 0.182129 1.275 0.242843 1.15357C0.303557 0.910718 0.4857 0.789289 0.728557 0.667861C0.789272 0.607146 0.9107 0.607146 1.03213 0.607146H5.28213C5.76784 0.607146 6.19284 1.03215 6.19284 1.51786C6.19284 2.00357 5.76784 2.42857 5.28213 2.42857H3.21784L5.22141 4.55358L6.73927 3.03572C7.10356 2.67143 7.64999 2.67143 8.01427 3.03572C8.37856 3.4 8.37856 3.94643 8.01427 4.31072L6.49641 5.82858L7.40713 6.73929C9.16784 5.28215 11.4143 4.43215 13.8428 4.43215C16.3321 4.43215 18.5178 5.28215 20.2786 6.73929L24.7107 2.30715H22.525C22.0393 2.30715 21.6143 1.88215 21.6143 1.39643C21.6143 0.910718 22.0393 0.485718 22.525 0.485718ZM5.70713 14.3893C5.70713 18.8821 9.4107 22.5857 13.9036 22.5857C18.3964 22.5857 22.1 18.8821 22.1 14.3893C22.1 9.89643 18.3964 6.19286 13.9036 6.19286C9.4107 6.19286 5.70713 9.89643 5.70713 14.3893Z" fill="#3EB16E"/>
<path d="M16.9393 12.1429H10.9893C10.5036 12.1429 10.0786 12.5679 10.0786 13.0536C10.0786 13.5393 10.5036 13.9643 10.9893 13.9643H16.9393C17.425 13.9643 17.85 13.5393 17.85 13.0536C17.85 12.5679 17.425 12.1429 16.9393 12.1429Z" fill="#3EB16E"/>
<path d="M16.9393 15.1786H10.9893C10.5036 15.1786 10.0786 15.6036 10.0786 16.0893C10.0786 16.575 10.5036 17 10.9893 17H16.9393C17.425 17 17.85 16.575 17.85 16.0893C17.85 15.6036 17.425 15.1786 16.9393 15.1786Z" fill="#3EB16E"/>
</svg>
