<svg width="17" height="34" viewBox="0 0 17 34" fill="none" xmlns="http://www.w3.org/2000/svg">
<path fill-rule="evenodd" clip-rule="evenodd" d="M8.5 0C12.0216 0 14.875 2.85547 14.875 6.375C14.875 9.89659 12.0216 12.75 8.5 12.75C4.97841 12.75 2.125 9.89659 2.125 6.375C2.125 2.85547 4.97841 0 8.5 0ZM8.5 12.75H12.75C15.095 12.75 17 14.654 17 17V21.25C17 23.595 15.095 25.5 12.75 25.5V34H4.25V25.5C1.904 25.5 0 23.595 0 21.25V17C0 14.654 1.904 12.75 4.25 12.75H8.5ZM4.25 6.375C4.25 8.721 6.154 10.625 8.5 10.625C10.845 10.625 12.75 8.721 12.75 6.375C12.75 4.029 10.845 2.125 8.5 2.125C6.154 2.125 4.25 4.029 4.25 6.375ZM12.75 23.375C13.9246 23.375 14.875 22.4246 14.875 21.25V17C14.875 15.8275 13.9246 14.875 12.75 14.875H4.25C3.07753 14.875 2.125 15.8275 2.125 17V21.25C2.125 22.4246 3.07753 23.375 4.25 23.375V19.125H6.375V31.875H10.625V19.125H12.75V23.375Z" fill="white"/>
</svg>
