<svg width="22" height="34" viewBox="0 0 22 34" fill="none" xmlns="http://www.w3.org/2000/svg">
<path d="M10.7368 26.8421C9.74854 26.8421 8.94737 26.0409 8.94737 25.0526V24.6768C9.00715 21.4385 10.9212 18.5222 13.8684 17.1789C16.8733 15.7236 18.4729 12.3842 17.7237 9.13066C16.9746 5.87708 14.0756 3.57356 10.7368 3.57895C6.78365 3.57895 3.57895 6.78365 3.57895 10.7368C3.57895 11.3762 3.23788 11.9669 2.68421 12.2866C2.13055 12.6062 1.4484 12.6062 0.894737 12.2866C0.341072 11.9669 0 11.3762 0 10.7368C0 4.80705 4.80705 0 10.7368 0C16.6344 0.0771022 21.3966 4.83928 21.4737 10.7368C21.4717 14.8401 19.1313 18.5835 15.4432 20.3821C13.7277 21.1358 12.5945 22.8043 12.5263 24.6768V25.0526C12.5263 26.0409 11.7251 26.8421 10.7368 26.8421Z" fill="#3EB16E"/>
<path d="M10.7369 34C11.7252 34 12.5263 33.1989 12.5263 32.2106C12.5263 31.2223 11.7252 30.4211 10.7369 30.4211C9.74856 30.4211 8.94739 31.2223 8.94739 32.2106C8.94739 33.1989 9.74856 34 10.7369 34Z" fill="#3EB16E"/>
</svg>
