<svg width="24" height="36" viewBox="0 0 24 36" fill="none" xmlns="http://www.w3.org/2000/svg">
<path d="M20.4 17.4C20.24 17.4 20.12 17.4 19.96 17.44C19.84 16.96 19.52 16.52 19 16.32L15.6 14.96L13.4 9.87999C12.96 8.67999 11.8 7.79999 10.4 7.79999C9.68001 7.79999 9.04001 8.03999 8.52001 8.39999L3.12001 12.04C2.80001 12.28 2.56001 12.6 2.44001 13L1.24001 18.2C1.04001 19.08 1.56001 19.92 2.44001 20.12C2.56001 20.16 2.68001 20.16 2.80001 20.16C3.52001 20.16 4.20001 19.64 4.36001 18.92L5.40001 14.36L6.40001 13.68C6.00001 16.4 5.96001 18.56 5.96001 18.92L5.56001 25.92L4.00001 33C3.80001 33.88 4.36001 34.72 5.20001 34.92C5.32001 34.96 5.44001 34.96 5.56001 34.96C6.28001 34.96 6.96001 34.44 7.12001 33.72L8.72001 26.52C8.72001 26.44 8.76001 26.36 8.76001 26.28L8.96001 22.36L11.56 25.24L11.92 32.68C11.96 33.52 12.68 34.2 13.52 34.2C13.56 34.2 13.56 34.2 13.6 34.2C14.48 34.16 15.16 33.4 15.12 32.52L14.72 24.52C14.72 24.16 14.56 23.8 14.32 23.52L11.52 20.44V13.96C11.52 13.96 11.56 13.96 11.56 13.92L12.84 16.84C13 17.24 13.32 17.52 13.72 17.68L17.68 19.28C17.56 19.56 17.52 19.88 17.52 20.2C17.52 21.08 17.92 21.84 18.56 22.36L18.6 22.4C18.72 22.52 18.92 22.6 19.12 22.6C19.56 22.6 19.92 22.24 19.92 21.8C19.92 21.52 19.8 21.28 19.6 21.16C19.4 20.92 19.2 20.6 19.2 20.2C19.2 19.52 19.72 19 20.4 19C21.08 19 21.6 19.52 21.6 20.2V22.72V23.8V34.2C21.6 34.64 21.96 35 22.4 35C22.84 35 23.2 34.64 23.2 34.2V20.2C23.2 18.64 21.96 17.4 20.4 17.4Z" stroke="#3EB16E"/>
<path d="M12.6 7.4C14.3673 7.4 15.8 5.96731 15.8 4.2C15.8 2.43269 14.3673 1 12.6 1C10.8327 1 9.40002 2.43269 9.40002 4.2C9.40002 5.96731 10.8327 7.4 12.6 7.4Z" stroke="#3EB16E"/>
</svg>
