<svg width="35" height="34" viewBox="0 0 35 34" fill="none" xmlns="http://www.w3.org/2000/svg">
<path fill-rule="evenodd" clip-rule="evenodd" d="M30.7235 29.6066L33.8334 17.1479C34.1298 16.0463 34.0368 15.1702 33.5569 14.5435C33.0843 13.9264 32.2575 13.6 31.1667 13.6H23.2333C22.2802 13.6 21.5333 12.8537 21.5333 11.9V5.1C21.5333 1.95387 19.5789 0 16.4333 0C14.871 0 13.6 1.27103 13.6 2.83333V8.5C13.6 11.36 11.36 13.6 8.5 13.6C8.1872 13.6 7.93333 13.8533 7.93333 14.1667V32.8667H1.13333V12.4667H8.5C8.8128 12.4667 9.06667 12.2134 9.06667 11.9C9.06667 11.5866 8.8128 11.3333 8.5 11.3333H0.566667C0.253867 11.3333 0 11.5866 0 11.9V33.4333C0 33.7467 0.253867 34 0.566667 34H8.5C8.8128 34 9.06667 33.7467 9.06667 33.4333V14.709C12.2865 14.4313 14.7333 11.8037 14.7333 8.5V2.83333C14.7333 1.91193 15.5119 1.13333 16.4333 1.13333C18.9544 1.13333 20.4 2.57947 20.4 5.1V16.4333C20.4 18.6575 18.6575 20.4 16.4333 20.4C16.1205 20.4 15.8667 20.6533 15.8667 20.9667C15.8667 21.28 16.1205 21.5333 16.4333 21.5333C19.2933 21.5333 21.5333 19.2933 21.5333 16.4333V14.1695C22.0048 14.5203 22.5873 14.7333 23.2333 14.7333H31.1667C31.6721 14.7333 32.3414 14.82 32.6576 15.2331C32.912 15.5652 32.9392 16.1098 32.7363 16.8629L29.6242 29.3324C29.3477 30.4396 28.5464 31.7333 27.2 31.7333H18.7C17.4341 31.7333 16.5336 31.2194 15.5811 30.6748L15.5799 30.6742C14.541 30.0805 13.4668 29.4667 11.9 29.4667H10.7667C10.4539 29.4667 10.2 29.72 10.2 30.0333C10.2 30.3467 10.4539 30.6 10.7667 30.6H11.9C13.1659 30.6 14.0664 31.114 15.0189 31.6585L15.0201 31.6592C16.059 32.2528 17.1332 32.8667 18.7 32.8667H27.2C28.8456 32.8667 30.2288 31.5871 30.7235 29.6066ZM4.53333 30.6C3.9083 30.6 3.4 30.0917 3.4 29.4667C3.4 28.8416 3.9083 28.3333 4.53333 28.3333C5.15837 28.3333 5.66667 28.8416 5.66667 29.4667C5.66667 30.0917 5.15837 30.6 4.53333 30.6Z" fill="#3EB16E"/>
</svg>
