<svg width="35" height="34" viewBox="0 0 35 34" fill="none" xmlns="http://www.w3.org/2000/svg">
<path fill-rule="evenodd" clip-rule="evenodd" d="M30.7235 4.39337L33.8334 16.8521C34.1298 17.9537 34.0368 18.8298 33.5569 19.4565C33.0843 20.0736 32.2575 20.4 31.1667 20.4H23.2333C22.2802 20.4 21.5333 21.1463 21.5333 22.1V28.9C21.5333 32.0461 19.5789 34 16.4333 34C14.871 34 13.6 32.729 13.6 31.1667V25.5C13.6 22.64 11.36 20.4 8.5 20.4C8.1872 20.4 7.93333 20.1467 7.93333 19.8333V1.13334H1.13333V21.5333H8.5C8.8128 21.5333 9.06667 21.7866 9.06667 22.1C9.06667 22.4134 8.8128 22.6667 8.5 22.6667H0.566667C0.253867 22.6667 0 22.4134 0 22.1V0.566666C0 0.2533 0.253867 0 0.566667 0H8.5C8.8128 0 9.06667 0.2533 9.06667 0.566666V19.291C12.2865 19.5687 14.7333 22.1963 14.7333 25.5V31.1667C14.7333 32.0881 15.5119 32.8667 16.4333 32.8667C18.9544 32.8667 20.4 31.4205 20.4 28.9V17.5667C20.4 15.3425 18.6575 13.6 16.4333 13.6C16.1205 13.6 15.8667 13.3467 15.8667 13.0333C15.8667 12.72 16.1205 12.4667 16.4333 12.4667C19.2933 12.4667 21.5333 14.7067 21.5333 17.5667V19.8305C22.0048 19.4797 22.5873 19.2667 23.2333 19.2667H31.1667C31.6721 19.2667 32.3414 19.18 32.6576 18.7669C32.912 18.4348 32.9392 17.8902 32.7363 17.1371L29.6242 4.66763C29.3477 3.56037 28.5464 2.26667 27.2 2.26667H18.7C17.4341 2.26667 16.5336 2.78063 15.5811 3.3252L15.5799 3.32585C14.541 3.91951 13.4668 4.53333 11.9 4.53333H10.7667C10.4539 4.53333 10.2 4.28003 10.2 3.96667C10.2 3.6533 10.4539 3.4 10.7667 3.4H11.9C13.1659 3.4 14.0664 2.88603 15.0189 2.34147L15.0201 2.34083C16.059 1.74716 17.1332 1.13334 18.7 1.13334H27.2C28.8456 1.13334 30.2288 2.41287 30.7235 4.39337ZM4.53333 3.4C3.9083 3.4 3.4 3.9083 3.4 4.53333C3.4 5.15837 3.9083 5.66667 4.53333 5.66667C5.15837 5.66667 5.66667 5.15837 5.66667 4.53333C5.66667 3.9083 5.15837 3.4 4.53333 3.4Z" fill="#3EB16E"/>
</svg>
